<?xml version="1.0" standalone="no"?>
<svg
  width="600"
  height="600"
  viewBox="0 0 600 600"
  xmlns="http://www.w3.org/2000/svg"
>
  <g transform="translate(300,300)">
    <path d="M141.2,-179.9C175.6,-139.3,191.2,-87.9,207.4,-31.4C223.6,25.2,240.4,86.8,222.4,138.2C204.4,189.5,151.6,230.5,96.4,239.8C41.2,249,-16.5,226.5,-70,202.5C-123.4,178.6,-172.5,153.3,-205.6,111.3C-238.7,69.3,-255.8,10.6,-247.8,-45.3C-239.9,-101.3,-207.1,-154.4,-161.6,-193.1C-116.1,-231.7,-58.1,-255.9,-2.4,-253.1C53.4,-250.2,106.7,-220.5,141.2,-179.9Z" fill="#fff" fill-opacity="0.15" />
  </g>
</svg>
  