<?xml version="1.0" standalone="no"?>
<svg
  width="600"
  height="600"
  viewBox="0 0 600 600"
  xmlns="http://www.w3.org/2000/svg"
>
  <g transform="translate(300,300)">
    <path d="M145.4,-159.7C189.8,-136.2,227.8,-91.5,215.7,-53.8C203.5,-16.1,141.2,14.7,104.9,44.8C68.7,74.8,58.6,104.1,34.7,126.1C10.8,148.2,-26.9,162.9,-53.6,151.4C-80.3,139.9,-96,102.2,-118.7,66.7C-141.4,31.2,-171.2,-2.1,-176,-40.8C-180.9,-79.5,-160.8,-123.7,-127.3,-149.1C-93.8,-174.5,-46.9,-181.3,1.8,-183.4C50.6,-185.6,101.1,-183.2,145.4,-159.7Z" fill="#fff" fill-opacity="0.2" />
  </g>
</svg>
  