<?xml version="1.0" standalone="no"?>
<svg
  width="600"
  height="600"
  viewBox="0 0 600 600"
  xmlns="http://www.w3.org/2000/svg"
>
  <g transform="translate(300,300)">
    <path d="M122.8,-133.2C167.6,-108.7,218.2,-78.1,236.7,-32.9C255.2,12.2,241.5,71.9,207.7,110.1C174,148.4,120.2,165.4,65.7,188.7C11.3,212.1,-43.8,241.8,-95.3,234.8C-146.7,227.7,-194.6,183.9,-223.4,130.6C-252.3,77.4,-262,14.7,-239.6,-30.1C-217.2,-74.8,-162.6,-101.8,-117.3,-126.1C-72,-150.5,-36,-172.2,1.5,-174C39,-175.8,78,-157.6,122.8,-133.2Z" fill="#fff" fill-opacity="0.1" />
  </g>
</svg>
  