<?xml version="1.0" standalone="no"?>
<svg
  width="600"
  height="600"
  viewBox="0 0 600 600"
  xmlns="http://www.w3.org/2000/svg"
>
  <g transform="translate(300,300)">
    <path d="M83.9,-126.8C101,-85.7,101.7,-51.9,123,-10C144.2,31.8,186,81.6,173.8,98.1C161.6,114.6,95.5,97.7,54.1,85.3C12.7,73,-4.1,65.2,-24.3,60.5C-44.5,55.9,-68.2,54.4,-81.4,41.9C-94.7,29.4,-97.6,5.9,-114,-40.8C-130.4,-87.4,-160.3,-157.1,-143.6,-198.3C-126.8,-239.5,-63.4,-252.2,-15,-234.4C33.4,-216.5,66.8,-168,83.9,-126.8Z" fill="#FFF" fill-opacity=".13" />
  </g>
</svg>
  