<?xml version="1.0" standalone="no"?>
<svg
  width="600"
  height="600"
  viewBox="0 0 600 600"
  xmlns="http://www.w3.org/2000/svg"
>
  <g transform="translate(300,300)">
    <path d="M127.9,-133.4C172.2,-115.2,219,-81,222.1,-42.3C225.2,-3.6,184.5,39.7,153.4,83.9C122.3,128,100.8,173,67.1,186C33.4,198.9,-12.5,179.8,-65.2,166.2C-117.8,152.6,-177.1,144.6,-195.9,112.7C-214.7,80.9,-193,25.4,-181.3,-30.3C-169.5,-86,-167.7,-141.8,-139.1,-162.8C-110.6,-183.8,-55.3,-169.9,-6.7,-161.8C41.8,-153.8,83.6,-151.6,127.9,-133.4Z" fill="#fff" fill-opacity=".1" />
  </g>
</svg>
  