<?xml version="1.0" encoding="utf-8"?>
<!-- Generator: Adobe Illustrator 22.0.1, SVG Export Plug-In . SVG Version: 6.00 Build 0)  -->
<svg version="1.1" id="Calque_1" xmlns="http://www.w3.org/2000/svg" xmlns:xlink="http://www.w3.org/1999/xlink" x="0px" y="0px"
	 viewBox="0 0 816.6 841.9" style="enable-background:new 0 0 816.6 841.9;" xml:space="preserve">
<style type="text/css">
	.st0{fill:#ffffff;}
</style>
<g>
	<path class="st0" d="M686.5,821.2c12.5,0,24.4-2.5,35.3-6.9h-70.6C662.1,818.7,674,821.2,686.5,821.2z"/>
	<path class="st0" d="M627.8,800.3h117.3c3.7-3,7.2-6.3,10.4-9.9H617.4C620.6,794,624.1,797.3,627.8,800.3z"/>
	<path class="st0" d="M607,776.6h158.9c2.8-4.7,5.3-9.6,7.3-14.8H599.8C601.8,767,604.2,771.9,607,776.6z"/>
	<path class="st0" d="M600.1,693.7c-2.7,6.8-4.6,13.9-5.7,21.4h184.2c-1.1-7.5-3-14.6-5.7-21.4H600.1z"/>
	<path class="st0" d="M686.5,635.1c-33.7,0-63.1,17.9-79.5,44.6H766C749.6,653,720.1,635.1,686.5,635.1z"/>
	<path class="st0" d="M595.6,747.9h181.8c1.3-6.1,2-12.5,2.1-19h-186C593.5,735.4,594.3,741.8,595.6,747.9z"/>
	<rect x="294.5" y="728.9" class="st0" width="208.5" height="19"/>

	<path class="st0" d="M503,761.8H294.7c0.4,5.1,1.3,10.1,2.7,14.8H503V761.8z"/>

	<path class="st0" d="M503,206.2h276.6V22H18v117.8c0,36.7,29.7,66.4,66.4,66.4h210.2v473.5H503V206.2z"/>

	<rect x="294.5" y="693.7" class="st0" width="208.5" height="21.4"/>

	<path class="st0" d="M358.4,821.2H503v-6.9H329.5C338.2,818.6,348,821.2,358.4,821.2z"/>

	<path class="st0" d="M503,790.5H303.9c2.2,3.5,4.6,6.8,7.4,9.9H503V790.5z"/>
</g>
</svg>
